<svg id="Layer_1" data-name="Layer 1" xmlns="http://www.w3.org/2000/svg" viewBox="0 0 2592.38 1458.21"><defs><style>.cls-1{fill:#404040;}.cls-2{fill:#e9102a;}</style></defs><path class="cls-1" d="M809.75,435.56c6.77-12.82,17.85-22,27.46-32.44,52.6-56.9,105.53-113.5,158-170.53,22.17-24.11,45.91-36.71,81.77-36.38,227.78,2.1,455.59,1.07,683.39,1.07h15.2A713.31,713.31,0,0,0,1296.19,13.11c-395.44,0-716,320.56-716,716,0,207.69,88.44,394.73,229.71,525.51l.1-2.22q-.19-393.17-.38-786.34,0-14.91,0-29.81l.86-.15Z"/><path class="cls-2" d="M1781.23,202.44c-2.61,6.63-7,11.34-11.39,16.11q-98.34,106.76-196.46,213.71c-11.66,12.78-24,18.45-42.15,18.34-146.64-.9-293.29-.26-439.93-.86-16.14-.07-22.24,3.11-21.66,20.66,1.35,41.23,1.11,82.55.08,123.79-.39,15.59,3.45,20.48,19.92,20.34,99.65-.85,199.32-.44,299-.45h12.08c2,8.59-4.42,11.3-7.81,15Q1290.17,742,1187.16,854.58c-7.26,8-14.64,11.72-25.73,11.35-24.88-.84-49.84.47-74.72-.46-13-.48-17.36,3.31-16.94,16.63.93,29.14-.14,58.35.49,87.51.23,10.72-2.79,18.59-10.17,26.52Q958.95,1104.66,858.64,1214a43.78,43.78,0,0,1-3.23,3.16L813.62,1258c127.28,116.2,296.65,187.07,482.57,187.07,395.44,0,716-320.57,716-716C2012.19,520.8,1923.23,333.28,1781.23,202.44Z"/></svg>