<svg id="Layer_1" data-name="Layer 1" xmlns="http://www.w3.org/2000/svg" viewBox="0 0 1031.61 580.28"><defs><style>.cls-1{fill:#404040;}.cls-2{fill:#e9102a;}</style></defs><path class="cls-1" d="M336.55,182c2.5-4.73,6.58-8.12,10.12-11.95,19.39-21,38.89-41.83,58.22-62.85,8.17-8.88,16.92-13.52,30.14-13.4,83.93.77,167.88.39,251.83.39h5.6A262.89,262.89,0,0,0,515.81,26.29C370.09,26.29,252,144.42,252,290.14a263.1,263.1,0,0,0,84.65,193.65l0-.82q-.06-144.87-.14-289.76,0-5.51,0-11a3.06,3.06,0,0,0,.32-.05Z"/><path class="cls-2" d="M694.54,96.06a19,19,0,0,1-4.19,5.94q-36.24,39.34-72.4,78.75c-4.3,4.71-8.83,6.8-15.53,6.76-54-.33-108.08-.09-162.12-.32-5.94,0-8.19,1.15-8,7.62.5,15.19.41,30.42,0,45.62-.14,5.74,1.27,7.54,7.34,7.49,36.72-.31,73.45-.16,110.18-.17h4.45c.73,3.17-1.63,4.17-2.88,5.54q-37.86,41.6-75.81,83.09c-2.68,2.94-5.4,4.32-9.48,4.18-9.17-.31-18.37.17-27.54-.17-4.78-.18-6.4,1.22-6.24,6.13.34,10.74-.05,21.5.18,32.25a12.8,12.8,0,0,1-3.75,9.77q-37.26,40-74.23,80.27c-.38.41-.78.8-1.19,1.17L338,485.05A262.86,262.86,0,0,0,515.81,554c145.71,0,263.84-118.13,263.84-263.85A263.14,263.14,0,0,0,694.54,96.06Z"/></svg>