<svg id="Layer_1" data-name="Layer 1" xmlns="http://www.w3.org/2000/svg" viewBox="0 0 2592.38 1458.21"><defs><style>.cls-1{fill:#4aadde;}.cls-2{fill:#afc74f;}.cls-3{fill:#404040;}</style></defs><path class="cls-1" d="M488,563.16l.38.3-.48.08Z"/><path class="cls-1" d="M2011.19,734.49l-.8.59-.68-.67s.81-.7.81-.7Z"/><path class="cls-2" d="M1684.42,839.92c-28.62,0-54.37-.29-80.11.17-8.18.15-11.91-2.93-13.58-10.61-21.44-98.72,26.92-186.75,134.49-190.31,126.83-4.19,253.92-2.37,380.87-.86,65.78.79,100.22,37.5,101.5,103.75,1.16,60.13.09,120.31.6,180.46.09,10.39-3.13,13.4-13.25,13-19.83-.7-39.75-1-59.55.07-12.5.65-16.35-2.85-16.18-15.77.73-56.54.4-113.09.31-169.64-.06-33.62-7.39-41.48-41.45-41.6q-162.48-.54-325-.25c-59.83,0-81.39,22.09-81.08,81.8C1672.12,806.57,1674.76,822.32,1684.42,839.92Z"/><path class="cls-2" d="M1255.53,935.36c-30.7,0-61.41-.39-92.1.21-10.57.21-15.38-2.07-14.54-13.81a329.28,329.28,0,0,0,.07-43.3c-.7-11.28,3.33-14.13,14.31-14.08,53,.22,105.94-.31,158.91-.9,8.89-.09,18.51-.13,23.43-10.08a21.37,21.37,0,0,0-17.47-30.61c-17.3-1.62-34.84-.83-52.28-.76-23.49.09-47.12.75-69.83-6.3-36.09-11.22-55.3-37.44-60.29-73.69-5.15-37.34,6-69.13,37.9-91.55,14.73-10.37,32.46-11.8,49.43-12.06,57.77-.87,115.57-.1,173.36-.7,11.07-.11,14.89,2.68,14.11,14a296.59,296.59,0,0,0,0,43.3c.93,11.94-4.09,13.49-14.43,13.48-48.74,0-97.49.74-146.24,1.2-13.21.12-24.81,2.57-24,19.41.75,15.46,8.5,23.2,25,22.86,22.84-.47,45.72.51,68.58,1,6.61.13,13.27.16,19.83.91,36.32,4.13,67.69,17.46,79.45,55,12.43,39.74,3.63,76.19-26.37,106.24-14,14-32.1,18.89-51.13,19.27-31.89.64-63.8.17-95.7.17Z"/><path class="cls-2" d="M1800.22,734.38c28.36,0,54.73.2,81.08-.11,8.29-.1,10,5.26,11.26,11.28C1914,849.5,1863,929,1758.5,934.2c-76.83,3.81-154,1.74-231,.91-35-.39-64.41-28.13-65.16-62.6-1.64-74.55-.91-149.15-1.44-223.73-.07-9,3.66-11.11,11.87-10.94,21.66.42,43.35.74,65-.11,11.16-.44,12.49,4.42,12.43,13.76-.34,57.74-.2,115.49-.18,173.23,0,33.24,7.18,40.6,39.71,40.64,49.94.06,99.9-.79,149.82.26,43.57.92,69.46-26,71.29-67.76C1811.74,776.6,1809.47,756.1,1800.22,734.38Z"/><path class="cls-2" d="M922.14,640.5c0,49.88,0,97.14,0,144.41,0,16.23-.66,32.51.32,48.69,1.3,21.42,8.91,29.19,30.14,30.39,19.2,1.08,38.53-.24,57.72.91,13.52.8,12.29-7.2,12.28-15.9-.09-64.35.54-128.71-.45-193-.24-15.66,4.58-19.29,19.13-18.33,19.17,1.26,38.5.65,57.73.15,8.81-.22,13,1.62,13,11.73q-.48,137.13,0,274.24c0,10.13-4.18,11.82-12.94,11.75-55.94-.45-111.91.45-167.82-1-35.33-.93-65.9-13.59-84-46.86-9.08-16.69-12.71-34.94-13-53.63-.6-32.46-6.1-66.35,1.31-97s40.43-47.21,60.66-71.34C903.07,657.4,911.63,650.56,922.14,640.5Z"/><path class="cls-2" d="M2011.19,734.49c8.46-1,8,4.69,8,10.36-.06,60.13-.17,120.26.09,180.39,0,7.9-2.55,10.45-10.3,10.33-22.85-.36-45.72-.49-68.57,0-9.55.21-10.47-4.49-10.44-12.17q.29-89.3-.06-178.59c0-8.65,2.54-11.16,11.27-10.88,22.84.73,45.71.37,68.55.44l.68.67Z"/><path class="cls-2" d="M1187.9,279.56c-192.56,0-385.12.87-577.66-.91-30.32-.28-50.38,10.38-69.13,30.75C496.76,357.61,452,405.45,407.56,453.55c-8.13,8.79-17.49,16.58-23.21,27.42l.57.46s-.73.14-.73.12c0,8.39,0,16.8,0,25.2q.16,332.36.32,664.69l-.36,8.13,38.75-37.94c.95-.85,1.87-1.73,2.73-2.67Q510.48,1046.59,596,954.82c6.25-6.7,8.8-13.36,8.6-22.41-.53-24.66.38-49.34-.41-74-.36-11.26,3.34-14.47,14.32-14.06,21,.79,42.13-.32,63.16.39,9.37.32,15.61-2.84,21.75-9.59q86.77-95.46,173.9-190.59c2.87-3.15,8.28-5.44,6.6-12.71H873.66c-84.24,0-168.49-.33-252.73.38-13.92.12-17.16-4-16.83-17.18.87-34.87,1.07-69.8-.07-104.65-.49-14.84,4.67-17.52,18.31-17.46,123.95.51,247.92,0,371.87.72,15.38.1,25.77-4.69,35.63-15.49q82.73-90.6,166.07-180.65c4.61-5,9.26-9.9,11-18Z"/><path class="cls-3" d="M712.74,1071.91a5.15,5.15,0,0,1-10.3,0v-31.63H663.88v31.63a5.15,5.15,0,0,1-10.3,0v-71.56a5.15,5.15,0,0,1,10.3,0v30.37h38.56v-30.37a5.15,5.15,0,0,1,10.3,0Z"/><path class="cls-3" d="M728.18,1044.49c0-17,11.13-26.17,25-26.17s25.11,9.14,25.11,26.17v6.93c0,17-11.24,26.17-25.11,26.17s-25-9.15-25-26.17ZM738,1052c0,10.71,6.2,17,15.24,17s15.34-6.31,15.34-17v-8c0-10.72-6.31-17-15.34-17s-15.24,6.3-15.24,17Z"/><path class="cls-3" d="M829.15,1042.49c0-10.72-6.41-15-13.24-15-7.67,0-13.87,5.36-14.18,14.92v30.37a4.85,4.85,0,0,1-4.94,4.84,4.76,4.76,0,0,1-4.84-4.84v-49.49a4.85,4.85,0,0,1,4.84-4.94,4.94,4.94,0,0,1,4.94,4.94v3.15c3.57-4.94,8.93-8.09,16.6-8.09,9.67,0,15.66,4.1,18.6,11.35,3.47-6.83,9.35-11.35,18.6-11.35,14.18,0,20.59,8.72,20.59,23.43v31a4.85,4.85,0,0,1-4.94,4.84,4.76,4.76,0,0,1-4.83-4.84v-30.26c0-10.72-6.41-15-13.24-15-7.88,0-14.19,5.57-14.19,15.66v29.63a4.84,4.84,0,0,1-4.93,4.84,4.76,4.76,0,0,1-4.84-4.84Z"/><path class="cls-3" d="M915.52,1077.59c-14.92,0-26.06-9.15-26.06-26.17v-6.93c0-16,10.09-26.17,24-26.17s24.06,8.09,24.06,25.11v4.73a3.67,3.67,0,0,1-3.89,4H899.23c.11,10.71,7.25,16.81,17.23,16.81,3.68,0,9.78-.63,13.56-2.52,2.21-1.16,6.62-.84,6.62,3.46a4.28,4.28,0,0,1-2.31,3.79C930.23,1076.12,922.35,1077.59,915.52,1077.59Zm-16.29-33.73h28.48v-.95c0-10.72-5.26-16-14.29-16S899.23,1033.24,899.23,1043.86Z"/><path class="cls-3" d="M971.51,1044.49c0-17,11.14-26.17,25-26.17s25.12,9.14,25.12,26.17v6.93c0,17-11.24,26.17-25.12,26.17s-25-9.15-25-26.17Zm9.78,7.46c0,10.71,6.2,17,15.23,17s15.35-6.31,15.35-17v-8c0-10.72-6.31-17-15.35-17s-15.23,6.3-15.23,17Z"/><path class="cls-3" d="M1037,1028.51h-2.31a4.26,4.26,0,0,1-4.3-4.31,4.35,4.35,0,0,1,4.3-4.41H1037v-4.62c0-12.4,6.94-20,20.71-20a8,8,0,0,1,2.73.42,4.11,4.11,0,0,1,3.15,4.1,4.35,4.35,0,0,1-4.41,4.31c-.63,0-1.37-.11-2.42-.11-5.78,0-10,3.89-10,11.88v4H1058a4.35,4.35,0,0,1,4.31,4.41,4.26,4.26,0,0,1-4.31,4.31h-11.24v44.24a4.85,4.85,0,0,1-4.94,4.84,4.77,4.77,0,0,1-4.84-4.84Z"/><path class="cls-3" d="M1124.5,1069.91c-3.68,5.15-9.46,7.68-16.81,7.68-12.93,0-18.81-6-18.81-16.19,0-12.61,8.09-17.65,24.06-17.65h11.56v-1.26c0-9.35-2.21-15.45-14.71-15.45a20.17,20.17,0,0,0-12.08,4.1,5,5,0,0,1-3.16,1.16,4,4,0,0,1-4.2-4.21,4.39,4.39,0,0,1,1.89-3.67c4.1-3.05,9-6.1,19.34-6.1,17.54,0,22.69,7.57,22.69,23.64v30.79a4.84,4.84,0,0,1-4.93,4.84,4.76,4.76,0,0,1-4.84-4.84Zm0-17.86h-12.08c-10.41,0-13.77,1.89-13.77,9,0,5.46,3.36,8.19,10.19,8.19,7,0,15.66-3.36,15.66-14.18Z"/><path class="cls-3" d="M1159.38,1053.42c0,10.72,6.41,15,13.24,15,7.67,0,14.4-5.25,14.71-14.92v-30.37a4.85,4.85,0,0,1,4.94-4.83,4.75,4.75,0,0,1,4.83,4.83v49.5a4.85,4.85,0,0,1-4.83,4.94,4.94,4.94,0,0,1-4.94-4.94v-3.26c-3.78,5-9.46,8.2-17.13,8.2-14.18,0-20.59-8.73-20.59-23.44v-31a4.84,4.84,0,0,1,4.94-4.83,4.75,4.75,0,0,1,4.83,4.83Z"/><path class="cls-3" d="M1217.06,1019.79v-12.4a4.85,4.85,0,0,1,4.84-4.94,4.94,4.94,0,0,1,4.94,4.94v12.4h10.92a4.35,4.35,0,0,1,4.31,4.41,4.26,4.26,0,0,1-4.31,4.31h-10.92V1057c0,8.41,2.52,11.87,9.45,11.87.42,0,2-.1,2.42-.1a4.44,4.44,0,0,1,4.41,4.41,4.36,4.36,0,0,1-4.1,4.31,20.88,20.88,0,0,1-2.62.11c-12.93,0-19.34-5.68-19.34-20v-29.11h-5.57a4.27,4.27,0,0,1-4.31-4.31,4.36,4.36,0,0,1,4.31-4.41Z"/><path class="cls-3" d="M1253.52,1000.14a4.85,4.85,0,0,1,4.83-4.94,4.93,4.93,0,0,1,4.94,4.94v26.69c3.89-5.25,9.77-8.51,17.66-8.51,14.18,0,20.59,8.72,20.59,23.43v31a4.85,4.85,0,0,1-4.94,4.84,4.76,4.76,0,0,1-4.83-4.84v-30.26c0-10.72-6.41-15-13.24-15-7.88,0-15.24,5.57-15.24,15.66v29.63a4.85,4.85,0,0,1-4.94,4.84,4.76,4.76,0,0,1-4.83-4.84Z"/><path class="cls-3" d="M1340.94,1077.59c-14.92,0-26.06-9.15-26.06-26.17v-6.93c0-16,10.09-26.17,24-26.17s24.06,8.09,24.06,25.11v4.73a3.67,3.67,0,0,1-3.89,4h-34.36c.11,10.71,7.25,16.81,17.24,16.81,3.67,0,9.77-.63,13.55-2.52,2.21-1.16,6.62-.84,6.62,3.46a4.26,4.26,0,0,1-2.31,3.79C1355.65,1076.12,1347.77,1077.59,1340.94,1077.59Zm-16.29-33.73h28.48v-.95c0-10.72-5.26-16-14.29-16S1324.65,1033.24,1324.65,1043.86Z"/><path class="cls-3" d="M1414.49,1042.49c0-10.72-6.41-15-13.24-15-7.88,0-15.24,5.57-15.24,15.66v29.63a4.85,4.85,0,0,1-4.94,4.84,4.76,4.76,0,0,1-4.83-4.84v-49.49a4.85,4.85,0,0,1,4.83-4.94,4.93,4.93,0,0,1,4.94,4.94v3.57c3.89-5.25,9.78-8.51,17.66-8.51,14.18,0,20.59,8.72,20.59,23.43v31a4.85,4.85,0,0,1-4.94,4.84,4.76,4.76,0,0,1-4.83-4.84Z"/><path class="cls-3" d="M1443.07,1019.79v-12.4a4.85,4.85,0,0,1,4.83-4.94,4.94,4.94,0,0,1,4.94,4.94v12.4h10.93a4.36,4.36,0,0,1,4.31,4.41,4.27,4.27,0,0,1-4.31,4.31h-10.93V1057c0,8.41,2.52,11.87,9.46,11.87.42,0,2-.1,2.41-.1a4.45,4.45,0,0,1,4.42,4.41,4.36,4.36,0,0,1-4.1,4.31,21,21,0,0,1-2.63.11c-12.92,0-19.33-5.68-19.33-20v-29.11h-5.57a4.26,4.26,0,0,1-4.31-4.31,4.35,4.35,0,0,1,4.31-4.41Z"/><path class="cls-3" d="M1479.42,1000a4.84,4.84,0,0,1,4.83-4.94,4.93,4.93,0,0,1,4.94,4.94v5.67a4.85,4.85,0,0,1-4.94,4.83,4.75,4.75,0,0,1-4.83-4.83Zm0,23.22a4.85,4.85,0,0,1,4.83-4.94,4.94,4.94,0,0,1,4.94,4.94v49.49a4.85,4.85,0,0,1-4.94,4.84,4.76,4.76,0,0,1-4.83-4.84Z"/><path class="cls-3" d="M1542.88,1021a4.56,4.56,0,0,1,2.53,4,4.42,4.42,0,0,1-6.52,3.78,25.38,25.38,0,0,0-10.3-1.78c-10,0-15.86,5.78-15.86,17v8c0,10.71,5.78,17,15.44,17a22.1,22.1,0,0,0,11.14-2.73,4.39,4.39,0,0,1,2.42-.74,4.44,4.44,0,0,1,4.41,4.41,4.26,4.26,0,0,1-2.31,3.79c-4.1,2.42-9,3.89-15.87,3.89-14.92,0-25-10.2-25-26.17v-6.93c0-14.61,8-26.17,25.75-26.17A34.78,34.78,0,0,1,1542.88,1021Z"/><path class="cls-3" d="M1612.44,1060.14c0-6.72-6.73-8.09-11.77-8.4l-5.57-.42c-8.72-.63-17.23-4.31-17.23-15.45,0-12.4,10.61-17.65,21.33-17.65,7.88,0,15.55,1.78,18.18,3.25a4.54,4.54,0,0,1,2.52,4c0,3.36-2.73,5.57-7.57,3.67a34.86,34.86,0,0,0-12-2.1c-8.3,0-13.13,2.73-13.13,8.3,0,6.41,6.51,7.25,11.77,7.67l6.3.53c9,.73,16.71,4.73,16.71,15.34,0,13.87-13.14,18.6-23.85,18.6-8,0-15.35-2.1-17.76-3.47a4.5,4.5,0,0,1-2.52-4c0-3.89,3.67-5,7.88-3.47a45.11,45.11,0,0,0,14,2.42C1606.45,1069,1612.44,1066.45,1612.44,1060.14Z"/><path class="cls-3" d="M1634.81,1023.26a4.85,4.85,0,0,1,4.84-4.94,4.94,4.94,0,0,1,4.94,4.94v3.89a20.3,20.3,0,0,1,17.33-8.83c15.24,0,22.91,11.35,22.91,26.17v6.93c0,16-7.88,26.17-22.91,26.17-8.09,0-13.66-4.21-17.33-9.88v28a4.85,4.85,0,0,1-4.94,4.84,4.76,4.76,0,0,1-4.84-4.84Zm9.78,18.6V1052c0,8.4,7,17,16,17s14.5-6.31,14.5-17v-8c0-10.72-5.67-17-14.71-17C1652.78,1026.94,1645.64,1033.56,1644.59,1041.86Z"/><path class="cls-3" d="M1696.17,1044.49c0-17,11.14-26.17,25-26.17s25.12,9.14,25.12,26.17v6.93c0,17-11.25,26.17-25.12,26.17s-25-9.15-25-26.17ZM1706,1052c0,10.71,6.2,17,15.23,17s15.34-6.31,15.34-17v-8c0-10.72-6.3-17-15.34-17s-15.23,6.3-15.23,17Z"/><path class="cls-3" d="M1760,1023.26a4.85,4.85,0,0,1,4.84-4.94,4.93,4.93,0,0,1,4.93,4.94v5.15c3.79-5.89,9.15-10.09,14.4-10.09,3.78,0,5,2.21,5,4.62s-1.36,4.52-4.2,4.52c-7.67,0-14.92,7.36-15.24,17v28.26a4.84,4.84,0,0,1-4.93,4.84,4.76,4.76,0,0,1-4.84-4.84Z"/><path class="cls-3" d="M1802.61,1019.79v-12.4a4.85,4.85,0,0,1,4.83-4.94,4.93,4.93,0,0,1,4.94,4.94v12.4h10.93a4.35,4.35,0,0,1,4.31,4.41,4.26,4.26,0,0,1-4.31,4.31h-10.93V1057c0,8.41,2.52,11.87,9.46,11.87.42,0,2-.1,2.42-.1a4.44,4.44,0,0,1,4.41,4.41,4.36,4.36,0,0,1-4.1,4.31,21,21,0,0,1-2.63.11c-12.92,0-19.33-5.68-19.33-20v-29.11H1797a4.26,4.26,0,0,1-4.31-4.31,4.35,4.35,0,0,1,4.31-4.41Z"/><path class="cls-3" d="M1870.8,1060.14c0-6.72-6.72-8.09-11.77-8.4l-5.57-.42c-8.72-.63-17.23-4.31-17.23-15.45,0-12.4,10.61-17.65,21.33-17.65,7.88,0,15.55,1.78,18.18,3.25a4.52,4.52,0,0,1,2.52,4c0,3.36-2.73,5.57-7.56,3.67a34.89,34.89,0,0,0-12-2.1c-8.3,0-13.14,2.73-13.14,8.3,0,6.41,6.52,7.25,11.77,7.67l6.31.53c9,.73,16.7,4.73,16.7,15.34,0,13.87-13.13,18.6-23.85,18.6-8,0-15.34-2.1-17.76-3.47a4.52,4.52,0,0,1-2.52-4c0-3.89,3.68-5,7.88-3.47a45.12,45.12,0,0,0,14,2.42C1864.81,1069,1870.8,1066.45,1870.8,1060.14Z"/><path class="cls-3" d="M1918.5,1097.13a4.57,4.57,0,0,1-2.31-4c0-4.1,4.2-4.94,6.41-3.79,4.31,1.9,10.19,2.53,13.87,2.53,13.66,0,17.55-7.57,17.55-18.5v-5.67c-3.79,5.67-9.25,9.88-17.34,9.88-15,0-22.91-10.2-22.91-26.17v-6.93c0-14.82,7.67-26.17,22.91-26.17a20.48,20.48,0,0,1,17.34,8.83v-3.89a4.85,4.85,0,0,1,4.83-4.94,4.94,4.94,0,0,1,4.94,4.94V1074c0,14.82-8.72,26.59-27.53,26.59C1929.43,1100.6,1922.6,1099.55,1918.5,1097.13Zm35.52-55.27c-1-8.3-8.2-14.92-15.77-14.92-9,0-14.71,6.3-14.71,17v8c0,10.71,5.47,17,14.5,17s16-8.62,16-17Z"/><path class="cls-3" d="M1977.55,1044.49c0-17,11.14-26.17,25-26.17s25.11,9.14,25.11,26.17v6.93c0,17-11.24,26.17-25.11,26.17s-25-9.15-25-26.17Zm9.77,7.46c0,10.71,6.2,17,15.24,17s15.34-6.31,15.34-17v-8c0-10.72-6.31-17-15.34-17s-15.24,6.3-15.24,17Z"/><path class="cls-3" d="M2038.91,1044.49c0-17,11.14-26.17,25-26.17s25.11,9.14,25.11,26.17v6.93c0,17-11.24,26.17-25.11,26.17s-25-9.15-25-26.17Zm9.77,7.46c0,10.71,6.2,17,15.24,17s15.34-6.31,15.34-17v-8c0-10.72-6.31-17-15.34-17s-15.24,6.3-15.24,17Z"/><path class="cls-3" d="M2140.62,1067.6c-3.78,5.68-9.35,10-17.44,10-15,0-22.91-10.2-22.91-26.17v-6.93c0-14.82,7.67-26.17,22.91-26.17a20.75,20.75,0,0,1,17.44,8.93v-27.11a4.85,4.85,0,0,1,4.83-4.94,4.93,4.93,0,0,1,4.94,4.94v72.61a4.85,4.85,0,0,1-4.94,4.84,4.76,4.76,0,0,1-4.83-4.84Zm0-15.55v-8.19c0-9.25-7.67-16.92-15.87-16.92-9,0-14.71,6.3-14.71,17v8c0,10.71,5.47,17,14.5,17s16-8.62,16-17Z"/><path class="cls-3" d="M2198.51,1060.14c0-6.72-6.72-8.09-11.77-8.4l-5.56-.42c-8.73-.63-17.24-4.31-17.24-15.45,0-12.4,10.62-17.65,21.33-17.65,7.88,0,15.55,1.78,18.18,3.25a4.52,4.52,0,0,1,2.52,4c0,3.36-2.73,5.57-7.56,3.67a34.89,34.89,0,0,0-12-2.1c-8.3,0-13.14,2.73-13.14,8.3,0,6.41,6.52,7.25,11.77,7.67l6.31.53c9,.73,16.71,4.73,16.71,15.34,0,13.87-13.14,18.6-23.86,18.6-8,0-15.34-2.1-17.76-3.47a4.52,4.52,0,0,1-2.52-4c0-3.89,3.68-5,7.88-3.47a45.17,45.17,0,0,0,14,2.42C2192.52,1069,2198.51,1066.45,2198.51,1060.14Z"/><path class="cls-3" d="M2068,371c-.7-3-2-5.16-3.82-6.32a9,9,0,0,0,5.17-8.28,8.6,8.6,0,0,0-2.75-6.6c-2.14-1.93-5.14-2.8-9.73-2.8a44.06,44.06,0,0,0-8.07.68l-.56.12v32.85h5.54V366.82h3.16c3.41.13,4.86,1.55,5.74,5.66,1.06,4.68,1.7,7,2.21,7.84l.21.36H2071l-.56-1.05C2069.76,378.45,2069,375.18,2068,371Zm-4.2-14.13c0,3.31-2.49,5.37-6.5,5.37h-3.52v-10.4a19.81,19.81,0,0,1,3.37-.24C2060.18,351.66,2063.8,352.6,2063.8,356.9Z"/><path class="cls-3" d="M2059.36,336.47a27.39,27.39,0,1,0,27.39,27.39A27.42,27.42,0,0,0,2059.36,336.47Zm23.15,27.39a23.15,23.15,0,1,1-23.15-23.15A23.17,23.17,0,0,1,2082.51,363.86Z"/><path class="cls-3" d="M1750.84,381.88a56.57,56.57,0,0,1,18.58,12.46,55.21,55.21,0,0,1,12.34,18.58,58.13,58.13,0,0,1,4.2,21.93v98.52a14.83,14.83,0,0,1-4.43,10.9,14.55,14.55,0,0,1-10.67,4.44,14.94,14.94,0,0,1-10.79-4.44,14.63,14.63,0,0,1-4.55-10.9V478.48h-99a19.9,19.9,0,1,0,0,39.79h39.55a14.93,14.93,0,0,1,10.79,4.43,14.38,14.38,0,0,1,4.55,10.67,14.63,14.63,0,0,1-4.55,10.9,14.94,14.94,0,0,1-10.79,4.44h-39.55a48.73,48.73,0,0,1-19.65-4A52.36,52.36,0,0,1,1620.81,534,50.15,50.15,0,0,1,1609.9,518a50.6,50.6,0,0,1,0-39.2,49.75,49.75,0,0,1,10.91-16.05A52.39,52.39,0,0,1,1636.87,452a48.73,48.73,0,0,1,19.65-4h99V434.85a25.67,25.67,0,0,0-2.16-10.43,27.65,27.65,0,0,0-5.75-8.51,28.26,28.26,0,0,0-8.39-5.75,24.81,24.81,0,0,0-10.31-2.16H1634a14.89,14.89,0,0,1-10.78-4.43,14.35,14.35,0,0,1-4.56-10.67A15.57,15.57,0,0,1,1634,377.56h94.92A56.72,56.72,0,0,1,1750.84,381.88Z"/><path class="cls-3" d="M1974.6,522.7a14.38,14.38,0,0,1,4.55,10.67,14.63,14.63,0,0,1-4.55,10.9,14.94,14.94,0,0,1-10.79,4.44h-75a68.42,68.42,0,0,1-49.14-20.38,67.5,67.5,0,0,1-15-22.41,69.14,69.14,0,0,1-5.15-26.49V392.9a14.91,14.91,0,0,1,4.43-10.78,14.33,14.33,0,0,1,10.67-4.56A15.57,15.57,0,0,1,1850,392.9v86.53a36.73,36.73,0,0,0,3.11,15,39.83,39.83,0,0,0,20.74,20.73,36.66,36.66,0,0,0,15,3.12h75A14.93,14.93,0,0,1,1974.6,522.7Z"/><path class="cls-3" d="M2148.62,522.7a14.35,14.35,0,0,1,4.56,10.67,14.6,14.6,0,0,1-4.56,10.9,14.91,14.91,0,0,1-10.78,4.44h-75a68.47,68.47,0,0,1-49.14-20.38,67.8,67.8,0,0,1-15-22.41,69.14,69.14,0,0,1-5.15-26.49V392.9a14.91,14.91,0,0,1,4.43-10.78,14.35,14.35,0,0,1,10.67-4.56A15.56,15.56,0,0,1,2024,392.9v86.53a36.74,36.74,0,0,0,3.12,15,39.86,39.86,0,0,0,20.73,20.73,36.69,36.69,0,0,0,15,3.12h75A14.91,14.91,0,0,1,2148.62,522.7Z"/><path class="cls-3" d="M1566.51,378.76a16.21,16.21,0,0,1,6.59,5.63,14.82,14.82,0,0,1,2.52,8.51V533.37a14.8,14.8,0,0,1-4.44,10.9,14.53,14.53,0,0,1-10.66,4.44,14.92,14.92,0,0,1-10.79-4.44,14.6,14.6,0,0,1-4.56-10.9V428.62l-76,73.11a15.7,15.7,0,0,1-21.09,0l-76-73.11V533.37a14.63,14.63,0,0,1-4.55,10.9,14.94,14.94,0,0,1-10.79,4.44,14.5,14.5,0,0,1-10.66-4.44,14.8,14.8,0,0,1-4.44-10.9V392.9a14.82,14.82,0,0,1,2.52-8.51,16.14,16.14,0,0,1,6.59-5.63,14.45,14.45,0,0,1,8.75-1.08,14.72,14.72,0,0,1,7.79,4.2l91.32,87.73L1550,381.88a14.64,14.64,0,0,1,7.79-4.2A14.46,14.46,0,0,1,1566.51,378.76Z"/><path class="cls-3" d="M1458.64,278.65a80,80,0,0,0-79.92,79.92v21h9.74v-21a70.18,70.18,0,1,1,140.36,0v21h9.74v-21A80,80,0,0,0,1458.64,278.65Z"/></svg>